<svg height="512" viewBox="0 0 64 64" width="512" xmlns="http://www.w3.org/2000/svg"><g id="flat"><rect fill="#ad6327" height="38" rx="2" width="58" x="3" y="19"/><path d="m47 51s-7 2-20 2-20-2-20-2v-26s7-2 20-2 20 2 20 2z" fill="#ceac9a"/><path d="m57 26a2.772 2.772 0 0 1 -.18 1 3 3 0 1 1 0-2 2.772 2.772 0 0 1 .18 1z" fill="#f4f4e6"/><path d="m57 26a2.772 2.772 0 0 1 -.18 1h-2.82v-2h2.82a2.772 2.772 0 0 1 .18 1z" fill="#195c85"/><path d="m56.12 36.12a2.995 2.995 0 0 1 -4.82-3.41 2.9 2.9 0 0 1 1.41-1.41 2.995 2.995 0 0 1 3.41 4.82z" fill="#f4f4e6"/><path d="m54.71 33.29-1.42 1.42-1.99-2a2.9 2.9 0 0 1 1.41-1.41z" fill="#195c85"/><path d="m50 44h8v2h-8z" fill="#d3843d"/><path d="m50 48h8v2h-8z" fill="#d3843d"/><path d="m50 52h8v2h-8z" fill="#d3843d"/><path d="m55 40h2v2h-2z" fill="#fcf05a"/><path d="m51 40h2v2h-2z" fill="#fcf05a"/><path d="m56 61h-48l-2-4h52z" fill="#66342e"/><g fill="#f4f4e6"><path d="m12 32h-2v-4.781l.758-.189a41.918 41.918 0 0 1 9.242-1.03v2a41.753 41.753 0 0 0 -8 .8z"/><path d="m42 47h2v2h-2z"/><path d="m38 47h2v2h-2z"/><path d="m21.136 37.5h12.728v2h-12.728z" transform="matrix(.707 -.707 .707 .707 -19.169 30.722)"/><path d="m27.343 37h11.314v2h-11.314z" transform="matrix(.707 -.707 .707 .707 -17.205 34.464)"/></g><path d="m34.293 15.707-11-11 1.414-1.414 11.787 11.787z" fill="#32b1cc"/><path d="m41.707 15.707-2.385-.443 11.971-11.971 1.414 1.414z" fill="#32b1cc"/><path d="m22.379 3.5h4.243v2h-4.243z" fill="#e97424" transform="matrix(.707 -.707 .707 .707 3.994 18.642)"/><path d="m50.5 2.379h2v4.243h-2z" fill="#e97424" transform="matrix(.707 -.707 .707 .707 11.902 37.734)"/><path d="m38 14c-2.761 0-5 1.791-5 4a3.235 3.235 0 0 0 .177 1h9.646a3.235 3.235 0 0 0 .177-1c0-2.209-2.239-4-5-4z" fill="#f9bb4b"/></g></svg>